<svg width="33" height="33" viewBox="0 0 33 33" fill="none" xmlns="http://www.w3.org/2000/svg">
<path d="M24.7175 0.0068662L20.4382 0C15.6306 0 12.5236 3.18763 12.5236 8.12134V11.8658H8.22098C7.84918 11.8658 7.5481 12.1673 7.5481 12.5391V17.9644C7.5481 18.3362 7.84952 18.6373 8.22098 18.6373H12.5236V32.3271C12.5236 32.6989 12.8247 33 13.1965 33H18.8103C19.1821 33 19.4832 32.6986 19.4832 32.3271V18.6373H24.514C24.8858 18.6373 25.1869 18.3362 25.1869 17.9644L25.1889 12.5391C25.1889 12.3605 25.1178 12.1896 24.9919 12.0632C24.8659 11.9369 24.6942 11.8658 24.5157 11.8658H19.4832V8.69158C19.4832 7.16591 19.8467 6.3914 21.8341 6.3914L24.7169 6.39037C25.0883 6.39037 25.3894 6.08895 25.3894 5.71749V0.679754C25.3894 0.308636 25.0887 0.00755282 24.7175 0.0068662Z" fill="#1877F2"/>
</svg>
